<svg xmlns="http://www.w3.org/2000/svg" xmlns:xlink="http://www.w3.org/1999/xlink" width="40234" height="40234"><path fill="#F8F9F8" transform="scale(201.173 201.173)" d="M0 0L200 0L200 200L0 200L0 0Z"></path><path fill="#CD0904" transform="scale(201.173 201.173)" d="M149.308 140.758C151.27 140.969 153.186 141.237 155.126 141.603C155.035 143.473 154.71 145.356 154.467 147.213L154.34 147.376C154.233 147.352 154.115 147.355 154.018 147.303C153.802 147.191 153.059 145.77 152.892 145.493C151.823 143.714 150.826 142.188 149.308 140.758Z"></path><path transform="scale(201.173 201.173)" d="M120.406 74.9882C122.307 75.0453 125.52 76.3071 127.289 77.1434C127.654 77.3163 127.635 77.2933 127.776 77.6912C127.057 78.1227 126.505 78.0383 125.691 78.0569C123.832 78.2106 120.567 79.2229 118.876 78.236C118.777 78.0646 118.549 77.7838 118.566 77.5904C118.65 76.5953 119.717 75.6288 120.406 74.9882Z"></path><path transform="scale(201.173 201.173)" d="M122.619 55.1273C124.659 55.4685 125.898 58.1401 127.663 59.6262C127.442 59.5531 127.513 59.751 127.205 59.7162C125.239 59.494 123.798 59.8638 121.923 60.3481C121.542 59.9193 121.158 59.4866 120.746 59.0878C119.649 58.0277 118.754 57.9606 117.312 57.9919C116.282 58.0076 115.126 58.1354 114.141 57.7945L114.064 57.4246L115.54 55.5967L115.866 55.6179L116.069 56.6581C116.699 57.0883 119.314 56.8097 120.188 56.8258C120.791 57.1894 121.255 57.7173 121.817 58.1345C122.307 58.4981 122.814 58.7784 123.438 58.698L123.695 58.268C123.731 57.1143 123.12 56.1305 122.619 55.1273Z"></path><path transform="scale(201.173 201.173)" d="M101.009 47.1839C101.421 47.2161 101.844 47.2542 102.248 47.3475C104.581 47.887 105.833 49.9132 106.967 51.8164L104.84 53.1252C104.507 53.3783 104.157 53.611 103.814 53.8495L103.2 53.6969C101.486 52.3316 102.445 50.9176 101.57 49.4606C101.17 48.795 100.209 49.1944 99.7406 48.3744C100.026 47.6988 100.403 47.5776 101.009 47.1839Z"></path><path transform="scale(201.173 201.173)" d="M132.507 66.3448C133.625 66.5362 134.638 67.3197 135.587 67.9124C136.297 67.442 136.962 66.8128 137.855 66.8641C139.206 68.8244 133.567 73.7116 132.826 75.4591C132.386 76.4992 132.491 77.9881 132.473 79.1211C132.189 79.4407 131.888 79.8071 131.549 80.068C131.051 80.4513 130.694 80.4538 130.1 80.3687C129.871 80.1382 129.654 79.9027 129.561 79.5844C128.851 77.1469 132.184 75.0349 133.609 73.3433C134.175 72.6716 134.577 71.8412 134.975 71.062C134.437 69.3619 133.439 67.8521 132.507 66.3448Z"></path><path fill="#CD0904" transform="scale(201.173 201.173)" d="M139.139 150.6C139.953 150.94 141.276 153.208 141.898 153.94C144.525 157.038 146.686 157.224 150.481 157.529C150.142 157.904 149.089 158.051 148.572 158.192C144.647 158.906 140.282 157.722 136.509 156.692C137.24 154.626 138.25 152.605 139.139 150.6Z"></path><path fill="#CD0904" transform="scale(201.173 201.173)" d="M129.691 140.775C130.821 140.488 133.722 141.357 134.717 141.971C135.308 142.336 135.8 142.865 135.965 143.554C136.199 144.525 135.782 145.513 135.253 146.312C133.598 148.811 130.192 150.319 127.333 150.824C126.919 150.897 126.549 150.9 126.136 150.821C127.458 150.399 128.53 149.963 129.461 148.871C130.648 147.479 131.352 145.689 131.206 143.847C131.093 142.41 130.792 141.706 129.691 140.775Z"></path><path transform="scale(201.173 201.173)" d="M126.045 64.7179L126.347 64.9111C126.159 65.9478 125.979 67.091 126.017 68.147C126.108 70.7056 128.763 70.3222 130.207 71.6628L130.098 72.0727C128.597 72.7431 126.278 70.8107 124.669 71.6044L124.685 72.072C125.27 72.9468 125.911 73.3004 126.812 73.7751C127.464 73.9457 127.972 74.1824 128.554 74.5223C127.613 75.0833 124.414 74.1192 123.251 73.8663C122.628 73.3302 121.976 72.7904 121.565 72.0666C121.088 71.2271 120.886 70.2137 121.149 69.2748C121.79 66.9963 124.141 65.7828 126.045 64.7179Z"></path><path fill="#CD0904" transform="scale(201.173 201.173)" d="M146.936 140.85C147.213 140.766 147.393 140.865 147.647 140.966C147.491 147.748 152.486 148.41 153.462 153.34C153.711 154.597 153.213 155.326 152.552 156.331L152.303 156.349C152.663 155.768 152.935 155.358 152.92 154.651C152.581 153.975 152.019 153.679 151.396 153.292C148.459 151.678 145.09 150.941 142.275 149.053C141.202 148.333 140.08 147.317 139.846 145.985C139.683 145.052 140.053 144.089 140.614 143.354C142.061 141.456 144.738 141.126 146.936 140.85Z"></path><path fill="#CD0904" transform="scale(201.173 201.173)" d="M131.89 157.253C128.318 158.295 124.353 159.053 120.902 157.157C119.297 156.276 118.104 154.878 117.613 153.103C116.992 150.855 117.584 148.365 118.749 146.393C120.666 143.148 123.555 141.81 127.067 140.894C125.877 143.561 125.025 148.032 124.923 150.958C124.74 151.783 124.694 152.651 124.75 153.494C124.821 154.585 125.103 155.714 125.97 156.449C127.637 157.861 129.904 157.441 131.89 157.253Z"></path><path fill="#CD0904" transform="scale(201.173 201.173)" d="M33.7601 132.11C36.8778 133.178 39.4597 133.148 42.5235 132.011Q42.4744 132.113 42.4233 132.213C39.1708 138.601 34.4476 144.205 27.4139 146.527C29.5438 148.521 31.4332 150.963 33.3691 153.155Q35.4409 155.665 37.6865 158.021L28.0179 158.021C27.9634 155.349 28.3776 149.206 27.2729 147.058C27.148 146.816 27.1164 146.703 27.1187 146.43C28.071 146.076 28.829 145.487 29.5815 144.819C32.9911 141.793 33.5169 136.371 33.7601 132.11Z"></path><path fill="#CD0904" transform="scale(201.173 201.173)" d="M63.1053 141.048L63.4285 141.155C63.3538 144.589 59.6317 154.298 60.8787 156.87C60.9706 157.06 60.9328 156.956 61.0016 157.147C61.0159 157.187 61.0284 157.228 61.0422 157.267L61.1003 157.432C60.919 157.661 60.7204 157.84 60.4512 157.959C58.9027 158.642 56.5513 158.307 55.0298 157.678C53.7081 156.468 53.2665 155.147 52.6725 153.506C53.9599 150.533 54.6497 147.332 55.2905 144.169L54.9314 143.7L55.3579 143.437L55.2636 143.346C57.8341 142.401 60.4549 141.727 63.1053 141.048Z"></path><path fill="#CD0904" transform="scale(201.173 201.173)" d="M175.56 140.812C176.215 140.851 176.833 140.909 177.439 141.181C182.005 143.229 177.552 151.785 177.481 155.336C177.467 156.02 177.928 156.946 178.174 157.588C177.366 158.312 175.331 158.289 174.277 158.334C173.468 158.151 172.492 157.955 171.828 157.438C167.971 154.432 172.761 147.035 172.266 143.803C172.181 143.245 171.786 143.071 171.374 142.764L171.405 142.432C172.474 141.421 174.161 141.101 175.56 140.812Z"></path><path fill="#CD0904" transform="scale(201.173 201.173)" d="M100.6 140.852C101.789 140.931 103.634 140.888 104.544 141.696C104.124 142.448 103.61 142.315 102.892 142.711C101.693 143.372 100.778 146.183 100.384 147.41C99.7589 149.359 98.5909 153.357 99.6289 155.301C100.238 156.443 100.699 155.596 101.536 155.861C101.057 156.832 99.2869 157.577 98.3367 158.039C96.7261 158.35 95.2535 158.554 93.8036 157.565C92.6671 156.79 92.0884 155.544 91.8689 154.218C91.3412 151.03 92.558 147.187 94.4367 144.618C96.0194 142.453 97.939 141.254 100.6 140.852Z"></path><path fill="#CD0904" transform="scale(201.173 201.173)" d="M75.5737 140.83C76.9225 140.917 78.2568 141.253 79.5775 141.53C78.9677 141.865 78.2753 142.209 77.7427 142.657C75.3253 144.69 74.3438 148.834 74.0822 151.822C73.9722 153.079 73.7415 154.788 74.6058 155.822C75.4964 156.124 75.5769 155.756 76.4092 155.626C75.9354 156.628 74.1879 157.495 73.2017 157.932C72.7853 158.072 72.3556 158.149 71.9228 158.219C70.6612 158.423 69.4071 158.282 68.3558 157.497C67.187 156.625 66.666 155.247 66.4961 153.84C66.098 150.544 67.3923 146.709 69.4488 144.143C71.0848 142.102 72.9783 141.114 75.5737 140.83Z"></path><path fill="#CD0904" transform="scale(201.173 201.173)" d="M50.1267 140.821C51.5097 140.937 52.8967 141.27 54.2591 141.535C53.5173 141.89 52.7014 142.273 52.1146 142.861C49.7884 145.193 48.6265 150.054 48.5802 153.241C48.567 154.153 48.5945 155.266 49.2687 155.955C49.9836 156.122 50.0768 155.965 50.7073 155.632L50.82 155.888C50.0248 157.094 48.5622 157.589 47.2906 158.141Q47.0134 158.201 46.7343 158.251C45.418 158.487 44.1224 158.349 43.015 157.546C41.8754 156.719 41.3314 155.434 41.1416 154.072C40.6966 150.879 41.9404 147.015 43.8674 144.473C45.5073 142.31 47.4384 141.184 50.1267 140.821Z"></path><path fill="#CD0904" transform="scale(201.173 201.173)" d="M18.7827 132.005C21.2891 132.342 24.0256 132.175 26.5627 132.202C25.3568 136.486 24.6141 141.03 23.674 145.387C22.7912 149.478 21.4861 153.873 21.1825 158.033L13.3441 157.989C15.2172 149.436 17.6135 140.671 18.7827 132.005Z"></path><path fill="#CD0904" transform="scale(201.173 201.173)" d="M90.7584 130.612C91.696 131.64 85.3299 153.584 85.8546 156.337C85.9051 156.602 86.2807 157.1 86.4243 157.358C86.2099 157.63 86.1147 157.805 85.7895 157.948C84.1705 158.66 81.9101 158.289 80.3143 157.666C78.9467 156.558 78.709 155.047 78.1213 153.475C79.8481 148.481 82.5689 137.354 82.9637 132.213L90.7584 130.612Z"></path><path fill="#CD0904" transform="scale(201.173 201.173)" d="M115.418 130.838C115.657 130.729 115.94 130.788 116.196 130.807C116.725 132.549 110.699 153.871 111.238 156.244C111.341 156.697 111.643 157.083 111.734 157.584C111.565 157.736 111.39 157.873 111.187 157.976C109.883 158.636 107.42 158.276 106.064 157.867C104.364 156.598 104.032 155.452 103.524 153.496C105.693 146.675 107.413 139.176 108.379 132.093C110.705 131.873 113.086 131.179 115.418 130.838Z"></path><path fill="#CD0904" transform="scale(201.173 201.173)" d="M170.74 130.585L170.802 130.632C170.859 130.761 170.997 130.984 171.015 131.116C171.13 131.958 165.856 155.423 165.321 157.987C162.912 158.051 160.485 157.985 158.073 157.978C158.027 157.916 157.811 157.676 157.803 157.62C157.7 156.881 158.315 155.035 158.475 154.251C159.449 149.486 160.551 144.749 161.556 139.991C162.092 137.456 162.769 134.844 162.983 132.263C165.532 131.587 168.157 131.119 170.74 130.585Z"></path><path transform="scale(201.173 201.173)" d="M108.051 62.0847C109.3 62.8552 110.477 64.4035 111.507 65.473C109.69 66.7222 107.831 68.0739 106.603 69.9429C105.682 71.3463 105.203 73.04 105.566 74.7074C105.91 76.282 106.947 77.4861 108.283 78.3381C110.109 79.5026 112.883 80.4963 115.044 80.0302C115.875 79.5931 116.182 78.6446 116.558 77.8336C117.37 78.8472 120.332 81.121 120.593 81.7934C121.297 83.6017 120.59 84.9306 122.314 86.4802C123.953 87.9537 124.9 87.6294 126.916 87.5606C128.382 87.5105 129.56 87.7414 130.639 88.8098C131.068 89.2338 131.189 89.4848 131.179 90.0754C130.484 90.8919 128.925 91.254 127.916 91.5531C123.997 92.7147 122.514 87.1878 119.6 85.6269C119.057 85.6201 118.722 85.6562 118.219 85.8902L118.186 86.0217C117.748 87.8076 120.747 91.8423 121.472 93.6541C123.803 99.4799 124.346 105.006 124.228 111.197L123.444 117.115C120.717 110.733 119.217 103.209 114.3 98.0507Q112.82 103.101 111.792 108.263C110.476 100.788 108.396 90.141 101.867 85.4313C99.0809 83.4213 95.9028 82.3772 93.1908 80.1367C94.5969 79.9653 95.9992 79.8445 97.4122 79.7466C97.7423 78.4304 98.1014 77.1323 98.5722 75.8583C100.38 70.9656 103.307 68.1972 107.974 66.0447L108.051 62.0847Z"></path><path transform="scale(201.173 201.173)" d="M75.9048 32.7474C78.8411 33.387 81.3326 35.457 84.4533 35.6613C86.8464 35.8179 89.5136 35.1069 91.9021 34.8333C99.0697 34.0121 108.917 33.6915 115.131 37.7572C117.719 39.4506 119.019 41.6636 119.618 44.6541C119.91 46.1118 120.503 49.8173 119.546 51.0877C119.241 51.4923 119.098 51.4557 118.623 51.5263C118.049 49.8242 118.979 47.5953 118.674 45.7784C118.21 43.0097 116.379 41.5249 114.234 40.0132C114.281 41.8761 114.347 43.7224 114.517 45.5795C113.556 44.8994 112.538 44.2889 111.544 43.6581C111.349 45.9656 111.46 50.0773 109.996 51.8848C108.983 51.9879 105.132 46.1969 102.049 45.2956C101.169 45.0386 100.286 45.0668 99.4803 45.5318C97.7026 46.5582 97.0984 48.8843 96.6252 50.7268C92.2703 51.7239 83.5408 53.3362 79.799 55.2618C79.4153 55.4592 79.3782 55.4424 79.2422 55.8641C80.0456 56.3196 81.1496 56.1298 82.0442 56.0895L79.0426 57.7146C71.5435 61.5019 63.827 64.9703 56.4805 69.0416C58.3079 66.5683 61.3516 64.4475 62.6738 61.7057L62.517 61.49C61.9069 61.6751 61.2752 61.9321 60.6293 61.8752C60.632 61.7449 60.6306 61.6569 60.6812 61.5344C61.0719 60.5883 61.9469 59.5129 62.5712 58.6981C65.7183 54.5911 69.3913 52.3455 74.2178 50.7095C70.2504 49.7648 66.2504 48.112 62.6882 46.1357Q68.436 46.9614 74.2424 46.8979C79.8308 46.8744 84.8762 46.5572 89.0053 42.3884C83.9633 43.7823 78.8133 44.1833 73.6006 43.8038C77.1768 42.7183 80.5829 41.4644 83.966 39.8701C82.2969 39.1168 80.6414 38.2787 79.1649 37.1861C77.6956 36.0988 76.1913 34.6221 75.9048 32.7474Z"></path><path transform="scale(201.173 201.173)" d="M95.2572 52.8304C95.5177 52.7852 95.7716 52.8902 96.0204 52.9612C96.5337 53.737 96.5167 54.7653 96.5986 55.6682C93.0317 57.9967 90.019 60.6562 87.5235 64.1257C89.9159 63.1145 92.1969 61.4613 94.4043 60.0838C88.8149 65.6857 85.8286 66.4052 81.2306 73.9667C83.7418 71.9253 93.7699 62.3244 96.196 62.3278L95.4545 62.6192L95.6243 62.8404C89.7128 67.1066 83.7829 72.1668 79.6241 78.2247C75.6543 84.0071 71.3954 94.4287 72.7337 101.508C73.5939 106.059 76.3148 109.007 80.0321 111.543L80.2431 111.781C79.992 111.866 79.9615 111.9 79.7099 111.818C72.6446 109.499 65.1314 105.085 61.7148 98.232C58.4722 91.7274 59.7919 85.1675 62.0098 78.6032Q61.2407 79.4238 60.5326 80.2977Q59.8246 81.1716 59.1813 82.0942Q58.538 83.0168 57.9628 83.9833Q57.3876 84.9498 56.8835 85.9553Q56.3793 86.9607 55.9489 87.9998Q55.5185 89.0389 55.1641 90.1063Q54.8096 91.1737 54.5329 92.2639Q54.2562 93.354 54.0587 94.4613C53.2653 88.2772 53.6363 81.6566 56.9474 76.2061C61.7148 68.3584 73.7867 62.706 81.7842 58.7124C82.7688 58.2208 85.1186 57.3258 85.5052 56.3125C85.023 56.1189 84.7564 56.0792 84.4592 55.6363C85.4745 54.6716 93.4087 53.1373 95.2572 52.8304Z"></path><path transform="scale(201.173 201.173)" d="M93.9986 67.2111C94.1453 68.1732 93.4428 69.6611 93.1275 70.6011C93.5936 72.3569 94.0352 74.1143 94.6962 75.8095C92.6733 77.1411 90.865 78.6988 89.5539 80.7467C93.5926 83.7609 98.3185 85.3327 101.966 88.9814C107.569 94.5868 110.026 104.416 110 112.182C109.175 109.98 108.669 107.654 107.855 105.436C106.096 100.643 103.664 96.6936 98.9273 94.5009C101.247 97.4967 103.787 100.06 105.642 103.413C106.902 106.669 107.309 109.956 107.398 113.417C101.339 114.192 92.7029 114.874 86.816 113.188C82.9333 112.075 77.8239 106.612 75.9397 103.152C73.9917 99.5741 73.9071 95.8189 75.0702 91.9663C77.6464 83.4334 86.1507 71.4371 93.9986 67.2111Z"></path></svg>